<?xml version="1.0" encoding="UTF-8"?>
<!DOCTYPE svg PUBLIC "-//W3C//DTD SVG 1.1//EN" "http://www.w3.org/Graphics/SVG/1.1/DTD/svg11.dtd">
<svg xmlns="http://www.w3.org/2000/svg" version="1.1" width="170px" height="40px" style="shape-rendering:geometricPrecision; text-rendering:geometricPrecision; image-rendering:optimizeQuality; fill-rule:evenodd; clip-rule:evenodd" xmlns:xlink="http://www.w3.org/1999/xlink">
<g><path style="opacity:1" fill="#fdfdff" d="M -0.5,-0.5 C 56.1667,-0.5 112.833,-0.5 169.5,-0.5C 169.5,12.8333 169.5,26.1667 169.5,39.5C 112.833,39.5 56.1667,39.5 -0.5,39.5C -0.5,26.1667 -0.5,12.8333 -0.5,-0.5 Z"/></g>
<g><path style="opacity:1" fill="#847cff" d="M 30.5,8.5 C 31.9616,9.45773 33.2949,10.6244 34.5,12C 32.6667,12.5 31.5,13.6667 31,15.5C 30.5,13.6667 29.3333,12.5 27.5,12C 28.7101,10.9609 29.7101,9.79423 30.5,8.5 Z"/></g>
<g><path style="opacity:1" fill="#d9d6ff" d="M 73.5,12.5 C 76.9619,11.5184 80.6286,11.185 84.5,11.5C 84.5,12.8333 84.5,14.1667 84.5,15.5C 83.1667,15.5 81.8333,15.5 80.5,15.5C 81.3984,14.8423 82.3984,14.1757 83.5,13.5C 80.2317,12.513 76.8984,12.1796 73.5,12.5 Z"/></g>
<g><path style="opacity:1" fill="#827aff" d="M 50.5,12.5 C 51.9778,12.238 53.3112,12.5713 54.5,13.5C 56.5938,17.0783 57.5938,20.745 57.5,24.5C 53.836,21.6115 50.5027,21.9449 47.5,25.5C 47.1667,25 46.8333,24.5 46.5,24C 48.1405,20.2441 49.4738,16.4108 50.5,12.5 Z"/></g>
<g><path style="opacity:1" fill="#7b73ff" d="M 66.5,21.5 C 65.791,20.596 64.791,20.2627 63.5,20.5C 63.8432,22.4832 63.1765,23.8166 61.5,24.5C 61.5,20.5 61.5,16.5 61.5,12.5C 64.7766,12.2161 67.9433,12.5495 71,13.5C 71.9439,16.3471 71.4439,18.8471 69.5,21C 72.4328,23.3515 72.0994,24.3515 68.5,24C 67.9341,23.0053 67.2674,22.172 66.5,21.5 Z"/></g>
<g><path style="opacity:1" fill="#7c74ff" d="M 73.5,12.5 C 76.8984,12.1796 80.2317,12.513 83.5,13.5C 82.3984,14.1757 81.3984,14.8423 80.5,15.5C 80.5,18.8333 80.5,22.1667 80.5,25.5C 79.5,25.5 78.5,25.5 77.5,25.5C 77.5,21.8333 77.5,18.1667 77.5,14.5C 75.5168,14.8432 74.1834,14.1765 73.5,12.5 Z"/></g>
<g><path style="opacity:1" fill="#746dff" d="M 88.5,12.5 C 89.0894,16.9707 88.4228,20.9707 86.5,24.5C 85.9106,20.0293 86.5772,16.0293 88.5,12.5 Z"/></g>
<g><path style="opacity:1" fill="#a29cff" d="M 88.5,12.5 C 89.4849,16.6344 89.8182,20.9677 89.5,25.5C 88.209,25.7373 87.209,25.404 86.5,24.5C 88.4228,20.9707 89.0894,16.9707 88.5,12.5 Z"/></g>
<g><path style="opacity:1" fill="#7c74ff" d="M 92.5,12.5 C 95.5719,12.1826 98.5719,12.5159 101.5,13.5C 99.3691,14.1687 97.3691,14.8354 95.5,15.5C 96.5521,17.256 98.2188,17.9227 100.5,17.5C 99.1979,19.0276 97.5313,20.0276 95.5,20.5C 95.5,22.1667 95.5,23.8333 95.5,25.5C 94.5,25.5 93.5,25.5 92.5,25.5C 92.5,21.1667 92.5,16.8333 92.5,12.5 Z"/></g>
<g><path style="opacity:1" fill="#746dff" d="M 106.5,12.5 C 107.089,16.9707 106.423,20.9707 104.5,24.5C 103.911,20.0293 104.577,16.0293 106.5,12.5 Z"/></g>
<g><path style="opacity:1" fill="#a29cff" d="M 106.5,12.5 C 107.485,16.6344 107.818,20.9677 107.5,25.5C 106.209,25.7373 105.209,25.404 104.5,24.5C 106.423,20.9707 107.089,16.9707 106.5,12.5 Z"/></g>
<g><path style="opacity:1" fill="#827aff" d="M 112.5,12.5 C 115.722,12.1081 118.722,12.6081 121.5,14C 120.975,14.6924 120.308,15.1924 119.5,15.5C 115.881,13.6491 113.548,14.6491 112.5,18.5C 113.548,22.3509 115.881,23.3509 119.5,21.5C 121.271,22.0354 121.604,22.8687 120.5,24C 114.761,26.464 111.094,24.6307 109.5,18.5C 109.984,16.1992 110.984,14.1992 112.5,12.5 Z"/></g>
<g><path style="opacity:1" fill="#746dff" d="M 124.5,12.5 C 125.794,14.0478 126.461,16.0478 126.5,18.5C 126.167,20.5 125.833,22.5 125.5,24.5C 124.509,20.5546 124.176,16.5546 124.5,12.5 Z"/></g>
<g><path style="opacity:1" fill="#746dff" d="M 130.5,12.5 C 133.572,12.1826 136.572,12.5159 139.5,13.5C 137.257,14.4742 134.924,14.8076 132.5,14.5C 132.5,15.5 132.5,16.5 132.5,17.5C 140.5,18.1667 140.5,18.8333 132.5,19.5C 132.5,20.5 132.5,21.5 132.5,22.5C 135.388,21.9898 137.721,22.6565 139.5,24.5C 136.5,24.5 133.5,24.5 130.5,24.5C 130.5,20.5 130.5,16.5 130.5,12.5 Z"/></g>
<g><path style="opacity:1" fill="#7870ff" d="M 142.5,12.5 C 145.187,12.3359 147.854,12.5026 150.5,13C 151.578,13.6739 152.245,14.6739 152.5,16C 152.294,17.8652 151.628,19.5319 150.5,21C 150.759,22.2613 151.426,23.2613 152.5,24C 151.5,24.6667 150.5,24.6667 149.5,24C 148.491,21.8282 146.824,20.6615 144.5,20.5C 144.762,21.9778 144.429,23.3112 143.5,24.5C 142.509,20.5546 142.176,16.5546 142.5,12.5 Z"/></g>
<g><path style="opacity:1" fill="#d3d0ff" d="M 92.5,12.5 C 95.6248,11.5206 98.9581,11.1872 102.5,11.5C 102.5,12.8333 102.5,14.1667 102.5,15.5C 100.167,15.5 97.8333,15.5 95.5,15.5C 97.3691,14.8354 99.3691,14.1687 101.5,13.5C 98.5719,12.5159 95.5719,12.1826 92.5,12.5 Z"/></g>
<g><path style="opacity:1" fill="#7d75ff" d="M 21.5,13.5 C 22.4096,16.7926 24.4096,19.2926 27.5,21C 25.2911,22.8734 23.4578,25.04 22,27.5C 20.5,24.6667 18.3333,22.5 15.5,21C 18.8172,19.5198 20.8172,17.0198 21.5,13.5 Z"/></g>
<g><path style="opacity:1" fill="#eeecff" d="M 64.5,14.5 C 66.6648,14.1159 68.3315,14.7826 69.5,16.5C 68.3315,18.2174 66.6648,18.8841 64.5,18.5C 64.5,17.1667 64.5,15.8333 64.5,14.5 Z"/></g>
<g><path style="opacity:1" fill="#bfbbff" d="M 149.5,15.5 C 148.167,15.5 146.833,15.5 145.5,15.5C 145.5,16.5 145.5,17.5 145.5,18.5C 144.566,17.4324 144.232,16.099 144.5,14.5C 146.415,14.2155 148.081,14.5489 149.5,15.5 Z"/></g>
<g><path style="opacity:1" fill="#fbfaff" d="M 149.5,15.5 C 149.5,16.5 149.5,17.5 149.5,18.5C 148.167,18.5 146.833,18.5 145.5,18.5C 145.5,17.5 145.5,16.5 145.5,15.5C 146.833,15.5 148.167,15.5 149.5,15.5 Z"/></g>
<g><path style="opacity:1" fill="#e9e7ff" d="M 51.5,16.5 C 54.962,18.1927 54.962,19.1927 51.5,19.5C 51.5,18.5 51.5,17.5 51.5,16.5 Z"/></g>
<g><path style="opacity:1" fill="#aba5ff" d="M 100.5,17.5 C 101.404,18.209 101.737,19.209 101.5,20.5C 99.5,20.5 97.5,20.5 95.5,20.5C 97.5313,20.0276 99.1979,19.0276 100.5,17.5 Z"/></g>
<g><path style="opacity:1" fill="#aaa5ff" d="M 66.5,21.5 C 64.8235,22.1834 64.1568,23.5168 64.5,25.5C 63.209,25.7373 62.209,25.404 61.5,24.5C 63.1765,23.8166 63.8432,22.4832 63.5,20.5C 64.791,20.2627 65.791,20.596 66.5,21.5 Z"/></g>
<g><path style="opacity:1" fill="#b5b1ff" d="M 130.5,12.5 C 130.5,16.5 130.5,20.5 130.5,24.5C 133.5,24.5 136.5,24.5 139.5,24.5C 136.375,25.4794 133.042,25.8128 129.5,25.5C 129.182,20.9677 129.515,16.6344 130.5,12.5 Z"/></g>
<g><path style="opacity:1" fill="#9188ff" d="M 30.5,26.5 C 33.9635,27.9465 34.1302,29.6132 31,31.5C 30.1667,30.6667 29.3333,29.8333 28.5,29C 29.756,28.5831 30.4226,27.7498 30.5,26.5 Z"/></g>
</svg>
